<?xml version="1.0" encoding="utf-8"?>
<!-- Generator: Adobe Illustrator 16.0.0, SVG Export Plug-In . SVG Version: 6.00 Build 0)  -->
<!DOCTYPE svg PUBLIC "-//W3C//DTD SVG 1.1//EN" "http://www.w3.org/Graphics/SVG/1.1/DTD/svg11.dtd">
<svg version="1.1" id="Layer_1" xmlns="http://www.w3.org/2000/svg" xmlns:xlink="http://www.w3.org/1999/xlink" x="0px" y="0px"
	 width="461px" height="81px" viewBox="76.5 355.5 461 81" enable-background="new 76.5 355.5 461 81" xml:space="preserve">
<g id="AzhGXN_1_">
	<g>
		<path fill="#FFFFFF" d="M461.335,359.896c1.813,0,3.491-0.027,5.168,0.006c2.711,0.054,4.396,1.644,4.651,4.354
			c0.049,0.519,0.074,1.043,0.074,1.564c0.005,19.362,0.005,38.724-0.001,58.085c-0.001,0.684-0.035,1.367-0.104,2.047
			c-0.32,3.187-3.272,6.067-6.283,5.749c-1.137-0.119-2.296-0.02-3.48-0.02c0,1.241,0,2.342,0,3.453c7.767,0,15.459,0,23.163,0
			c0-1.164,0-2.238,0-3.453c-1.17,0-2.277,0.001-3.387,0c-4.131-0.004-6.405-2.248-6.407-6.397
			c-0.011-20.246-0.006-40.495-0.001-60.742c0-0.283,0.058-0.565,0.113-1.099c2.006,3.042,3.875,5.845,5.709,8.669
			c13.534,20.837,27.062,41.679,40.6,62.512c0.157,0.244,0.432,0.556,0.671,0.573c0.896,0.067,1.799,0.026,2.787,0.026
			c0-0.673,0-1.152,0-1.629c0-22.864,0-45.729,0.001-68.593c0-3.347,1.753-5.095,5.115-5.107c1.627-0.006,3.255-0.001,4.896-0.001
			c0-1.197,0-2.251,0-3.272c-7.92,0-15.737,0-23.554,0c0,1.119,0,2.146,0,3.272c1.589,0,3.101-0.002,4.612,0
			c3.746,0.006,5.4,1.667,5.401,5.444c0.003,19,0.001,38-0.001,56.999c0,0.381-0.035,0.761-0.065,1.395
			c-0.334-0.446-0.526-0.678-0.691-0.929c-14.313-21.814-28.628-43.626-42.922-65.455c-0.404-0.617-0.824-0.839-1.545-0.834
			c-4.521,0.03-9.039,0.014-13.561,0.018c-0.307,0-0.614,0.039-0.961,0.063C461.335,357.7,461.335,358.729,461.335,359.896z
			 M186.264,432.115c-1.556,0-2.953,0.037-4.347-0.008c-2.142-0.069-3.822-1.048-4.655-3.014c-0.499-1.179-0.795-2.538-0.799-3.816
			c-0.048-19.919-0.034-39.838-0.034-59.757c0-0.379,0-0.758,0-1.137c0.496,0.26,0.73,0.602,0.957,0.949
			c15.158,23.173,30.315,46.347,45.484,69.512c0.174,0.268,0.498,0.583,0.774,0.606c0.899,0.077,1.808,0.028,2.817,0.028
			c0-0.657,0-1.171,0-1.684c0-22.6,0-45.198,0-67.797c0-3.774,1.638-5.423,5.391-5.428c1.546-0.002,3.092,0,4.759,0
			c0-0.873-0.053-1.587,0.013-2.291c0.082-0.88-0.204-1.192-1.126-1.171c-2.558,0.059-5.119,0.021-7.679,0.021
			c-4.6,0-9.2-0.006-13.799,0.011c-0.458,0.001-1.143-0.249-1.164,0.608c-0.023,0.904-0.005,1.809-0.005,2.823
			c1.755,0,3.346-0.015,4.938,0.003c3.449,0.039,5.157,1.75,5.158,5.206c0.007,19.119,0.004,38.238,0,57.357
			c0,0.287-0.059,0.573-0.115,1.087c-0.275-0.395-0.413-0.582-0.541-0.774c-14.374-21.777-28.751-43.553-43.106-65.343
			c-0.473-0.717-0.97-1.005-1.837-0.997c-4.439,0.043-8.879,0.019-13.319,0.022c-0.388,0-0.776,0.038-1.208,0.061
			c0,1.152,0,2.204,0,3.378c1.667,0,3.257-0.003,4.848,0c3.31,0.009,4.932,1.471,5.265,4.756c0.044,0.436,0.027,0.879,0.027,1.318
			c0.001,19.199,0.003,38.398-0.005,57.597c0,0.797-0.051,1.6-0.159,2.388c-0.424,3.095-3.378,5.82-6.228,5.516
			c-1.245-0.134-2.516-0.021-3.749-0.021c0,1.235,0,2.257,0,3.285c7.858,0,15.638,0,23.445,0
			C186.264,434.31,186.264,433.286,186.264,432.115z M290.431,414.499c0.064,0.206,0.108,0.394,0.179,0.57
			c2.261,5.621,4.521,11.241,6.792,16.858c0.348,0.86,0.928,0.979,1.635,0.323c0.674-0.625,1.346-1.262,1.941-1.958
			c0.515-0.603,0.971-0.6,1.642-0.25c1.237,0.645,2.514,1.215,3.8,1.756c6.132,2.58,12.384,4.479,19.174,3.459
			c6.885-1.035,12.577-4.111,16.548-9.914c3.162-4.62,4.572-9.786,3.431-15.353c-1.03-5.02-4.426-8.409-8.62-10.996
			c-4.66-2.875-9.906-4.132-15.237-5.019c-4.217-0.701-8.419-1.418-12.372-3.136c-6.437-2.796-9.7-7.738-9.688-14.726
			c0.011-6.753,3.207-11.707,9.357-14.335c7.429-3.174,14.561-1.942,21.078,2.666c4.473,3.162,7.402,7.67,10.119,12.314
			c1.028,1.757,1.41,1.915,3.523,1.383c-0.012-0.115,0-0.24-0.036-0.349c-1.927-5.787-3.857-11.572-5.781-17.36
			c-0.302-0.906-0.9-0.812-1.495-0.408c-0.692,0.47-1.362,0.991-1.962,1.572c-0.491,0.476-0.886,0.466-1.476,0.183
			c-1.977-0.949-3.954-1.904-5.985-2.722c-7.456-3.006-14.882-3.214-22.029,0.831c-7.444,4.212-11.26,10.678-10.646,19.288
			c0.602,8.435,4.955,14.258,13.019,17.228c4.409,1.623,8.974,2.501,13.571,3.312c4.989,0.879,9.786,2.319,13.949,5.361
			c5.069,3.703,6.911,9.084,4.933,14.884c-1.848,5.419-5.712,8.98-10.992,10.948c-6.902,2.574-13.515,1.383-19.83-2.012
			c-5.954-3.2-10.636-7.897-14.785-13.123C293.099,414.405,291.981,414.198,290.431,414.499z M249.075,360.537
			c2.773,0,5.407-0.027,8.041,0.008c2.467,0.033,3.869,1.235,4.294,3.635c0.111,0.625,0.165,1.269,0.165,1.903
			c0.011,7.798,0.007,15.596,0.007,23.394c0,12.316,0,24.633-0.001,36.949c0,1.465-0.191,2.887-1.185,4.05
			c-1.043,1.222-2.465,1.563-3.99,1.573c-2.427,0.018-4.855,0.005-7.321,0.005c0,1.159,0,2.18,0,3.245c10.118,0,20.164,0,30.191,0
			c0-1.119,0-2.142,0-3.245c-2.432,0-4.788,0.034-7.141-0.009c-3.497-0.062-5.037-1.643-5.058-5.101c-0.001-0.2,0-0.4,0-0.601
			c0-20.075,0-40.149,0-60.224c0-4.461,1.131-5.586,5.614-5.587c2.188,0,4.375,0,6.582,0c0-1.243,0-2.336,0-3.429
			c-10.101,0-20.119,0-30.198,0C249.075,358.246,249.075,359.31,249.075,360.537z M439.174,403.059c3.358,0,6.833,0,10.31,0
			c2.385,0,2.357,0.001,2.235-2.381c-0.038-0.751-0.358-0.943-1.044-0.94c-4.678,0.016-9.355,0.021-14.034-0.004
			c-0.787-0.005-1.093,0.294-1.046,1.061c0.058,0.939,0.271,1.922,0.081,2.816c-1.531,7.252-4.997,13.433-10.958,17.9
			c-10.285,7.71-21.535,8.579-33.306,3.934c-5.029-1.985-9.117-5.363-12.083-9.869c-2.902-4.411-5.593-8.992-4.717-14.669
			c0.137-0.883-0.293-1.183-1.176-1.176c-4.838,0.03-9.676,0.014-14.515,0.02c-0.227,0-0.452,0.056-0.698,0.088
			c0,1.093,0,2.105,0,3.251c4.342,0,8.598,0,12.88,0c0.075,0.392,0.134,0.66,0.18,0.933c0.856,5.128,2.498,9.977,5.109,14.487
			c7.801,13.471,22.889,19.728,37.599,15.234c11.166-3.41,18.362-11.223,22.556-21.909
			C437.633,409.062,438.271,406.119,439.174,403.059z M358.157,390.806c5.296,0,10.45,0.017,15.604-0.043
			c0.289-0.003,0.779-0.609,0.815-0.971c0.089-0.891-0.236-1.851-0.038-2.7c1.896-8.119,6.059-14.752,13.173-19.282
			c7.104-4.522,14.891-5.658,23.124-4.34c14.202,2.273,24.659,15.759,24.8,26.44c0.004,0.302,0.521,0.854,0.803,0.857
			c4.799,0.054,9.6,0.054,14.397,0.002c0.292-0.003,0.624-0.505,0.849-0.835c0.111-0.165,0.021-0.467,0.021-0.707
			c0.002-1.731,0.002-1.732-1.668-1.732c-3.48,0-6.96-0.016-10.439,0.013c-0.713,0.006-0.951-0.188-1.18-0.932
			c-1.037-3.39-1.866-6.905-3.404-10.067c-5.311-10.923-13.596-18.342-25.973-20.064c-9.927-1.381-18.782,1.348-26.16,8.268
			c-6.3,5.909-9.687,13.393-11.302,21.751c-0.176,0.91-0.526,1.054-1.325,1.046c-3.6-0.035-7.2-0.015-10.8-0.015
			c-0.423,0-0.845,0-1.296,0C358.157,388.661,358.157,389.646,358.157,390.806z"/>
		<path d="M77.28,357.24c8.831,0,17.662,0,26.591,0c0,1.007,0,1.928,0,3.038c-1.002,0-2.028,0.06-3.046-0.01
			c-5.874-0.395-7.268,3.016-7.427,7.314c-0.114,3.066-0.022,6.14-0.022,9.21c0,11.532-0.044,23.066,0.02,34.598
			c0.028,5.104,1.194,9.924,4.591,13.973c2.904,3.462,6.755,5.308,11.176,6.099c4.795,0.858,9.54,0.773,14.162-0.906
			c7.062-2.566,11.104-7.728,12.701-14.79c0.559-2.473,0.834-5.057,0.85-7.592c0.081-13.422,0.066-26.844,0.002-40.267
			c-0.007-1.616-0.329-3.288-0.831-4.831c-0.613-1.883-2.028-2.931-4.196-2.815c-1.547,0.083-3.104,0.017-4.744,0.017
			c0-1.029,0-1.945,0-2.954c7.765,0,15.496,0,23.306,0c0,0.942,0,1.866,0,2.954c-1.432,0-2.858,0.03-4.282-0.007
			c-2.346-0.062-3.967,1.064-4.7,3.139c-0.513,1.453-0.785,3.062-0.792,4.604c-0.059,13.383-0.008,26.766-0.05,40.148
			c-0.012,3.902-0.51,7.748-1.806,11.477c-2.341,6.731-6.874,11.377-13.697,13.655c-7.855,2.625-15.851,2.906-23.74,0.213
			c-7.426-2.534-11.662-7.854-12.764-15.504c-0.335-2.326-0.498-4.695-0.505-7.047c-0.045-14.289,0-28.577-0.055-42.865
			c-0.006-1.506-0.29-3.063-0.747-4.504c-0.706-2.229-2.449-3.304-4.836-3.306c-1.719-0.001-3.438,0.02-5.157,0.03
			C77.28,359.287,77.28,358.264,77.28,357.24z"/>
		<path d="M461.335,359.896c0-1.167,0-2.195,0-3.3c0.347-0.024,0.654-0.063,0.961-0.063c4.521-0.004,9.04,0.012,13.561-0.018
			c0.721-0.005,1.141,0.217,1.545,0.834c14.294,21.827,28.607,43.64,42.922,65.455c0.165,0.251,0.357,0.482,0.691,0.929
			c0.03-0.634,0.065-1.014,0.065-1.395c0.002-18.999,0.004-37.999,0.001-56.999c-0.001-3.776-1.655-5.437-5.401-5.444
			c-1.513-0.002-3.023,0-4.612,0c0-1.126,0-2.153,0-3.272c7.815,0,15.634,0,23.554,0c0,1.021,0,2.075,0,3.272
			c-1.643,0-3.27-0.005-4.896,0.001c-3.362,0.011-5.115,1.76-5.115,5.107c-0.001,22.864-0.001,45.729-0.001,68.593
			c0,0.478,0,0.956,0,1.629c-0.988,0-1.893,0.041-2.787-0.026c-0.239-0.019-0.514-0.329-0.671-0.573
			c-13.538-20.833-27.064-41.674-40.6-62.512c-1.834-2.824-3.703-5.626-5.709-8.669c-0.057,0.534-0.114,0.817-0.114,1.099
			c-0.004,20.248-0.009,40.496,0.001,60.742c0.002,4.149,2.277,6.395,6.408,6.397c1.108,0.001,2.217,0,3.386,0
			c0,1.215,0,2.288,0,3.453c-7.703,0-15.396,0-23.162,0c0-1.11,0-2.211,0-3.453c1.186,0,2.345-0.101,3.48,0.02
			c3.011,0.318,5.963-2.562,6.283-5.749c0.067-0.68,0.104-1.363,0.104-2.046c0.005-19.362,0.005-38.724,0.001-58.086
			c0-0.522-0.025-1.046-0.074-1.565c-0.258-2.71-1.94-4.3-4.651-4.354C464.826,359.869,463.148,359.896,461.335,359.896z"/>
		<path d="M186.264,432.115c0,1.171,0,2.193,0,3.294c-7.807,0-15.587,0-23.445,0c0-1.028,0-2.05,0-3.285
			c1.233,0,2.504-0.111,3.749,0.022c2.85,0.305,5.804-2.422,6.228-5.517c0.108-0.788,0.159-1.591,0.159-2.388
			c0.009-19.199,0.007-38.398,0.005-57.597c0-0.439,0.017-0.882-0.027-1.318c-0.333-3.285-1.956-4.747-5.265-4.756
			c-1.591-0.004-3.182,0-4.848,0c0-1.175,0-2.227,0-3.378c0.433-0.023,0.82-0.061,1.208-0.061c4.439-0.004,8.879,0.021,13.319-0.022
			c0.867-0.009,1.364,0.279,1.837,0.997c14.355,21.79,28.732,43.566,43.106,65.343c0.128,0.192,0.265,0.381,0.541,0.774
			c0.056-0.514,0.115-0.8,0.115-1.087c0.004-19.119,0.008-38.238,0-57.356c-0.001-3.457-1.709-5.167-5.158-5.206
			c-1.591-0.018-3.183-0.003-4.938-0.003c0-1.014-0.018-1.919,0.005-2.823c0.021-0.857,0.706-0.607,1.164-0.608
			c4.6-0.017,9.199-0.011,13.799-0.011c2.56,0,5.121,0.039,7.679-0.021c0.923-0.021,1.208,0.292,1.126,1.171
			c-0.066,0.704-0.013,1.418-0.013,2.291c-1.667,0-3.213-0.002-4.759,0c-3.753,0.005-5.391,1.654-5.391,5.428
			c0,22.599,0,45.197,0,67.797c0,0.513,0,1.025,0,1.684c-1.009,0-1.918,0.049-2.817-0.028c-0.277-0.023-0.6-0.34-0.774-0.606
			c-15.169-23.165-30.326-46.339-45.484-69.512c-0.227-0.347-0.46-0.689-0.957-0.949c0,0.379,0,0.758,0,1.137
			c0,19.919-0.014,39.838,0.034,59.757c0.003,1.278,0.3,2.639,0.799,3.816c0.833,1.966,2.513,2.943,4.655,3.014
			C183.311,432.152,184.708,432.115,186.264,432.115z"/>
		<path d="M290.431,414.499c1.55-0.301,2.668-0.094,3.755,1.276c4.148,5.226,8.831,9.923,14.785,13.123
			c6.315,3.395,12.928,4.586,19.83,2.012c5.28-1.968,9.146-5.529,10.992-10.948c1.979-5.8,0.138-11.181-4.933-14.884
			c-4.163-3.042-8.96-4.482-13.949-5.361c-4.6-0.811-9.162-1.688-13.571-3.312c-8.064-2.969-12.417-8.792-13.019-17.228
			c-0.614-8.61,3.202-15.076,10.646-19.288c7.147-4.044,14.573-3.836,22.029-0.831c2.031,0.818,4.01,1.773,5.984,2.722
			c0.591,0.283,0.984,0.292,1.477-0.183c0.6-0.581,1.27-1.102,1.962-1.572c0.595-0.403,1.193-0.498,1.495,0.408
			c1.924,5.788,3.854,11.573,5.781,17.36c0.035,0.109,0.024,0.234,0.035,0.349c-2.112,0.532-2.494,0.374-3.522-1.383
			c-2.717-4.644-5.646-9.153-10.119-12.314c-6.519-4.608-13.649-5.84-21.078-2.666c-6.15,2.628-9.346,7.582-9.357,14.335
			c-0.012,6.988,3.251,11.93,9.688,14.726c3.953,1.717,8.155,2.435,12.372,3.136c5.331,0.887,10.577,2.143,15.237,5.019
			c4.193,2.587,7.59,5.978,8.62,10.996c1.143,5.565-0.269,10.731-3.431,15.353c-3.971,5.802-9.663,8.879-16.548,9.914
			c-6.79,1.021-13.042-0.879-19.174-3.459c-1.286-0.541-2.563-1.112-3.8-1.756c-0.671-0.35-1.127-0.353-1.642,0.25
			c-0.596,0.696-1.268,1.333-1.941,1.958c-0.707,0.655-1.287,0.537-1.635-0.323c-2.271-5.617-4.531-11.237-6.792-16.858
			C290.539,414.893,290.495,414.705,290.431,414.499z"/>
		<path d="M249.075,360.537c0-1.227,0-2.292,0-3.431c10.08,0,20.098,0,30.198,0c0,1.093,0,2.186,0,3.429c-2.207,0-4.394,0-6.582,0
			c-4.483,0-5.614,1.125-5.614,5.587c0,20.074,0,40.147,0,60.224c0,0.199-0.001,0.399,0,0.601c0.021,3.458,1.561,5.037,5.058,5.101
			c2.354,0.043,4.709,0.009,7.141,0.009c0,1.104,0,2.126,0,3.245c-10.028,0-20.073,0-30.191,0c0-1.065,0-2.086,0-3.245
			c2.466,0,4.894,0.013,7.321-0.005c1.525-0.01,2.947-0.353,3.99-1.573c0.994-1.163,1.185-2.585,1.185-4.05
			c0.001-12.315,0.001-24.633,0.001-36.949c0-7.798,0.004-15.596-0.007-23.394c0-0.635-0.054-1.278-0.165-1.903
			c-0.425-2.4-1.827-3.603-4.294-3.635C254.482,360.51,251.849,360.537,249.075,360.537z"/>
		<path d="M439.174,403.059c-0.901,3.062-1.541,6.006-2.627,8.774c-4.191,10.687-11.39,18.499-22.556,21.909
			c-14.71,4.492-29.798-1.766-37.599-15.234c-2.611-4.512-4.253-9.359-5.109-14.488c-0.046-0.271-0.104-0.541-0.179-0.932
			c-4.283,0-8.539,0-12.881,0c0-1.146,0-2.158,0-3.251c0.246-0.032,0.473-0.088,0.698-0.088c4.839-0.006,9.677,0.012,14.516-0.021
			c0.882-0.006,1.312,0.293,1.175,1.177c-0.876,5.677,1.813,10.258,4.717,14.669c2.966,4.506,7.054,7.884,12.083,9.869
			c11.771,4.646,23.021,3.776,33.306-3.934c5.961-4.469,9.428-10.648,10.958-17.9c0.188-0.896-0.023-1.878-0.081-2.816
			c-0.047-0.767,0.26-1.064,1.046-1.062c4.679,0.024,9.356,0.021,14.034,0.005c0.686-0.004,1.006,0.189,1.044,0.94
			c0.122,2.382,0.148,2.381-2.235,2.381C446.007,403.059,442.532,403.059,439.174,403.059z"/>
		<path d="M358.157,390.806c0-1.159,0-2.145,0-3.31c0.451,0,0.873,0,1.296,0c3.6,0,7.2-0.02,10.8,0.015
			c0.799,0.008,1.149-0.136,1.325-1.046c1.615-8.358,5.002-15.842,11.302-21.751c7.378-6.919,16.233-9.648,26.16-8.268
			c12.377,1.722,20.662,9.141,25.973,20.064c1.538,3.162,2.367,6.678,3.404,10.067c0.228,0.743,0.467,0.938,1.18,0.932
			c3.479-0.029,6.959-0.013,10.439-0.013c1.67,0,1.67,0,1.668,1.732c0,0.24,0.091,0.542-0.021,0.707
			c-0.225,0.33-0.557,0.832-0.849,0.835c-4.799,0.051-9.6,0.051-14.398-0.002c-0.281-0.003-0.798-0.556-0.802-0.857
			c-0.141-10.682-10.598-24.167-24.8-26.44c-8.233-1.317-16.021-0.182-23.124,4.34c-7.114,4.529-11.277,11.163-13.173,19.282
			c-0.198,0.849,0.127,1.809,0.038,2.7c-0.036,0.361-0.526,0.967-0.815,0.971C368.607,390.822,363.453,390.806,358.157,390.806z"/>
	</g>
</g>
</svg>
